<?xml version="1.0" standalone="no"?>
<!DOCTYPE svg PUBLIC "-//W3C//DTD SVG 20010904//EN"
 "http://www.w3.org/TR/2001/REC-SVG-20010904/DTD/svg10.dtd">
<svg version="1.0" xmlns="http://www.w3.org/2000/svg"
 width="1024.000000pt" height="1024.000000pt" viewBox="0 0 1024.000000 1024.000000"
 preserveAspectRatio="xMidYMid meet">

<g transform="translate(0.000000,1024.000000) scale(0.100000,-0.100000)"
fill="#000000" stroke="none">
<path d="M4870 8773 c-80 -7 -342 -53 -445 -79 -361 -90 -795 -283 -1090 -484
-694 -474 -1186 -1206 -1354 -2014 -50 -236 -62 -353 -68 -633 -8 -351 10
-534 82 -829 51 -211 160 -497 255 -666 28 -48 50 -93 50 -101 0 -7 -73 -98
-162 -203 -489 -573 -512 -602 -545 -698 -17 -47 -18 -108 -18 -786 l0 -735
27 -51 c34 -64 94 -117 167 -146 l56 -23 1645 -3 c905 -2 1683 0 1730 4 l85 6
64 69 c35 38 70 69 77 69 8 0 37 -15 66 -33 75 -47 167 -84 245 -99 53 -10
325 -13 1213 -13 1285 0 1189 -5 1355 75 214 103 346 300 377 560 20 171 -15
322 -108 460 l-54 81 29 37 c46 60 66 126 65 217 -2 117 -29 181 -113 264
-147 148 -318 211 -536 197 -194 -12 -645 -18 -645 -9 0 6 39 45 86 88 159
145 392 428 513 623 55 88 165 304 206 403 182 440 261 889 236 1336 -10 171
-32 360 -52 451 -11 50 -5 64 116 267 103 172 207 358 235 419 39 86 51 139
57 247 5 92 3 117 -17 180 -36 122 -90 197 -189 264 -101 67 -175 89 -302 89
l-106 0 -7 106 c-9 157 -60 311 -138 423 -41 59 -152 169 -212 209 -141 97
-276 140 -437 139 -159 0 -284 -34 -413 -110 -52 -31 -60 -33 -80 -21 -101 65
-190 113 -315 170 -333 152 -618 232 -981 275 -115 14 -519 18 -650 8z m2571
-663 c78 -24 176 -87 225 -143 80 -93 122 -227 111 -351 -6 -59 -38 -152 -49
-140 -3 3 -5 -3 -4 -12 0 -10 -8 -20 -20 -23 -21 -6 -62 -33 -89 -58 -8 -7
-17 -13 -22 -13 -10 0 -116 -43 -123 -50 -3 -3 -66 -6 -140 -8 -95 -2 -131 0
-120 7 13 10 13 11 0 11 -9 0 -23 -8 -31 -18 -15 -17 -15 -20 3 -31 10 -6 23
-9 28 -6 5 3 19 -4 31 -16 13 -13 34 -22 50 -21 16 0 29 -4 29 -9 0 -5 -18 -9
-40 -9 -29 0 -40 -4 -40 -15 0 -12 15 -15 68 -17 l67 -2 -57 -3 c-44 -3 -79 3
-153 27 -52 18 -95 35 -95 39 0 4 -14 15 -32 26 -69 40 -168 176 -154 211 3 8
2 13 -3 9 -14 -8 -31 86 -31 168 0 127 35 224 110 310 121 137 309 191 481
137z m-2011 -192 c249 -113 837 -386 1016 -473 134 -65 183 -95 230 -138 103
-95 144 -194 144 -348 0 -143 -31 -220 -194 -476 l-75 -119 -338 -174 c-562
-288 -613 -314 -613 -320 0 -3 55 -35 123 -69 367 -191 1016 -539 1074 -577
108 -72 181 -184 205 -314 25 -131 -29 -289 -132 -383 -59 -55 -142 -101 -200
-111 -19 -3 -29 -3 -22 0 6 3 12 10 12 15 0 5 -6 9 -12 9 -7 0 -26 14 -43 31
-25 26 -35 29 -63 24 -19 -3 -46 -11 -61 -17 -14 -6 -35 -12 -46 -13 -11 0
-68 -14 -127 -30 -75 -19 -108 -33 -108 -43 0 -11 -8 -13 -35 -8 -43 8 -48
-13 -10 -38 30 -20 36 -20 29 -1 -4 8 -1 15 5 15 6 0 11 -4 11 -10 0 -5 10
-10 21 -10 18 0 19 2 9 15 -11 13 -8 15 16 15 16 0 35 -4 42 -8 17 -12 114 3
153 22 37 19 42 20 34 6 -4 -6 4 -6 21 0 15 6 33 9 40 6 8 -3 20 1 28 9 12 12
15 12 19 1 8 -21 -107 -46 -538 -116 -137 -22 -342 -58 -455 -80 -113 -22
-315 -60 -450 -85 -135 -26 -326 -62 -425 -81 -99 -19 -297 -56 -440 -83 -243
-46 -474 -94 -520 -107 -57 -17 58 51 234 138 92 46 106 50 125 38 19 -12 20
-11 8 2 -10 13 -10 17 3 22 9 3 14 2 10 -3 -12 -21 25 -16 107 12 49 17 85 34
81 40 -3 6 -1 7 6 3 11 -7 94 21 196 64 22 10 81 34 130 55 104 45 139 65 112
65 -9 0 -17 -4 -17 -10 0 -5 -6 -10 -14 -10 -8 0 -37 -12 -66 -26 -31 -15 -63
-24 -83 -23 -23 3 -31 -1 -29 -10 2 -8 -3 -11 -12 -8 -14 6 -63 -7 -99 -25
-10 -5 -23 -6 -29 -2 -7 4 -8 3 -4 -4 7 -11 -13 -16 -66 -15 -10 0 -18 -4 -18
-9 0 -4 -7 -8 -16 -8 -30 0 -5 16 143 89 81 40 157 78 168 84 74 41 150 75
157 71 4 -3 8 -1 8 3 0 11 52 38 109 58 54 19 71 19 71 1 0 -21 -20 -30 -33
-17 -17 17 -26 13 -20 -8 8 -30 42 -34 53 -6 7 17 18 24 47 26 52 5 95 0 88
-12 -4 -5 1 -9 11 -9 13 0 14 3 4 15 -7 8 -21 15 -31 15 -21 0 -26 19 -6 24
57 15 97 22 97 17 0 -4 9 -7 20 -8 22 -2 27 13 8 20 -8 2 -9 8 -4 13 5 5 11 4
13 -3 2 -7 10 -10 18 -7 8 3 11 12 8 20 -3 8 1 14 11 14 9 0 16 -6 17 -12 0
-10 2 -10 6 0 2 6 9 12 15 12 17 0 -22 -38 -55 -55 -16 -8 -33 -12 -38 -9 -5
3 -9 0 -9 -5 0 -6 -15 -11 -32 -12 -30 -1 -31 -2 -8 -8 18 -5 42 1 83 21 31
15 62 28 68 28 5 0 8 4 4 9 -3 6 3 9 14 8 23 -1 101 33 101 45 0 11 -17 10
-22 -1 -1 -4 -14 -12 -28 -16 -20 -6 -23 -5 -12 6 10 11 6 18 -19 41 -16 15
-35 28 -40 28 -6 0 -7 5 -4 10 4 6 15 8 26 5 13 -4 19 -2 19 9 0 9 2 16 4 16
2 0 13 3 23 6 16 6 15 5 -2 -9 -11 -8 -17 -19 -13 -23 4 -4 3 -13 -3 -21 -9
-10 -5 -13 20 -13 17 0 31 -4 31 -9 0 -5 11 -12 25 -15 27 -7 39 -2 182 65 46
22 85 39 88 39 3 0 63 28 133 61 228 110 280 130 401 149 l74 12 -64 35 c-35
19 -74 35 -86 36 -13 1 -23 7 -23 13 0 7 -21 21 -47 33 -27 12 -55 26 -63 31
-48 31 -167 86 -177 83 -7 -3 -13 -1 -13 5 0 15 -45 31 -61 21 -12 -7 -12 -9
1 -9 9 0 11 -3 4 -8 -15 -11 -12 -52 4 -52 9 0 4 -9 -12 -21 -24 -19 -30 -20
-58 -8 -26 11 -28 14 -12 19 15 6 14 8 -9 14 -16 3 -32 4 -37 1 -6 -4 -10 -2
-10 4 0 5 6 12 13 14 6 3 -2 3 -19 0 -24 -4 -37 0 -53 16 -12 12 -22 20 -23
19 -2 -1 -18 4 -37 10 -33 12 -34 13 -15 27 10 8 14 15 9 15 -6 0 -15 -4 -21
-10 -7 -7 -37 4 -91 31 -64 31 -81 44 -77 57 5 14 4 14 -4 2 -9 -12 -13 -12
-30 3 -10 9 -26 17 -35 17 -15 0 -15 3 -5 20 7 11 19 20 26 20 7 0 10 -4 7
-10 -3 -5 1 -10 11 -10 14 0 15 2 3 18 -7 9 -15 19 -16 21 -2 2 -12 -4 -22
-13 -19 -17 -21 -16 -54 18 -20 20 -42 36 -51 36 -8 0 -18 5 -21 10 -9 14 -48
12 -65 -2 -8 -7 -6 -3 4 9 15 18 15 21 2 19 -8 -1 -19 -5 -22 -9 -4 -4 -12 -7
-18 -7 -6 0 -4 4 4 10 12 7 11 10 -5 16 -18 7 -18 8 1 15 14 6 11 8 -13 6 -22
-1 -41 7 -58 23 -23 22 -24 25 -9 41 13 14 13 21 4 36 -9 15 -11 15 -6 1 6
-19 -19 -45 -28 -29 -4 5 -2 12 3 16 6 3 8 12 4 20 -3 8 0 15 6 15 6 0 11 7
11 15 0 8 -7 15 -15 15 -24 0 -51 32 -53 63 -1 18 3 27 13 27 8 0 14 -5 13
-11 -2 -6 3 -14 10 -16 7 -3 10 1 6 10 -3 8 -1 18 4 21 5 3 13 -9 17 -27 l7
-32 10 30 c6 17 14 32 19 35 4 3 4 23 0 45 -3 22 -5 69 -3 104 3 52 7 64 23
68 71 19 -54 23 -678 23 -636 0 -1048 7 -1658 26 -238 8 -266 22 -45 23 74 1
277 8 450 16 495 22 1365 38 1688 30 291 -6 294 -6 299 14 3 11 10 18 15 15 6
-4 5 3 -1 15 -14 25 -29 28 -27 4 1 -12 -8 -19 -24 -22 l-25 -4 25 -8 c14 -5
-41 -7 -129 -4 -85 3 -196 5 -247 5 -79 0 -92 2 -88 15 5 12 -3 15 -37 17
l-44 1 50 7 c49 7 48 7 -22 8 -41 1 -73 6 -73 12 0 6 55 10 145 10 90 0 145
-4 145 -10 0 -5 -9 -10 -21 -10 -11 0 -17 -4 -14 -10 3 -5 33 -10 66 -10 33 0
59 4 59 10 0 6 -13 10 -30 10 -16 0 -30 5 -30 10 0 6 11 10 25 10 14 0 25 5
25 10 0 7 -42 10 -115 9 -64 -1 -119 1 -122 5 -14 14 16 28 44 21 27 -6 40 -5
36 5 -2 7 149 1 156 -6 3 -4 -13 -5 -36 -2 -23 2 -39 0 -37 -4 7 -11 68 -10
79 1 16 15 203 19 198 4 -3 -6 -14 -13 -25 -15 -21 -3 -21 -4 -3 -18 10 -8 16
-10 12 -4 -4 7 1 14 11 16 24 7 42 -1 42 -18 0 -8 7 -14 15 -14 8 0 15 -4 15
-9 0 -5 10 -7 23 -4 18 4 19 3 7 -6 -27 -19 2 -11 36 10 19 11 32 24 29 28 -2
4 11 15 30 24 19 9 79 52 134 96 55 44 133 97 173 118 l73 38 -55 6 c-30 4
-397 9 -815 13 -693 5 -1141 12 -2098 32 -186 4 -336 9 -333 11 5 5 529 38
1006 63 216 12 550 33 785 50 77 5 228 14 335 19 107 6 339 21 515 35 176 14
397 30 490 36 98 6 236 23 325 40 85 16 172 31 193 35 24 4 35 10 31 17 -5 8
1 9 17 5 27 -7 181 22 174 33 -5 8 69 20 126 20 22 0 39 5 39 10 0 6 32 10 75
10 41 0 75 4 75 9 0 5 -44 31 -97 57 -54 26 -156 79 -228 118 -71 39 -170 91
-220 116 -49 25 -96 51 -103 58 -8 7 -21 11 -29 8 -8 -3 -12 -2 -9 3 8 12 -50
35 -65 25 -7 -4 -10 -3 -5 4 8 14 -119 86 -135 76 -7 -4 -9 -3 -5 4 10 16 -30
25 -54 12 -12 -6 -26 -9 -33 -6 -7 2 -2 8 11 12 23 7 23 7 3 25 -24 23 -31 24
-31 4 0 -8 -5 -15 -11 -15 -5 0 -7 5 -3 12 5 8 1 9 -12 5 -18 -7 -18 -6 -2 6
20 16 14 27 -14 27 -10 0 -29 9 -41 21 -12 11 -30 18 -39 15 -10 -2 -18 0 -18
5 0 4 -7 6 -16 2 -22 -8 5 -25 29 -17 10 3 17 0 17 -8 0 -16 49 -40 63 -31 6
3 7 1 3 -6 -5 -7 -17 -9 -29 -6 -15 5 -12 0 10 -13 17 -11 41 -29 52 -39 l22
-18 -33 -6 -33 -6 33 -2 c17 0 32 -5 32 -10 0 -5 7 -12 16 -15 12 -5 15 -2 11
13 -3 14 0 17 13 14 15 -4 16 -9 6 -29 -13 -28 -19 -29 -36 -9 -7 8 -18 15
-24 15 -21 0 -117 50 -112 58 2 4 -7 9 -21 10 -45 4 -59 25 -23 35 11 3 20 10
20 15 0 6 -9 8 -20 5 -11 -3 -20 -9 -20 -13 0 -4 -7 -11 -16 -14 -9 -4 -13 -2
-8 5 4 7 1 10 -7 7 -8 -3 -44 10 -81 28 -37 19 -74 34 -81 34 -15 0 -67 -25
-758 -356 -370 -177 -432 -204 -473 -204 -60 0 -106 21 -150 70 -81 90 -72
225 21 311 45 41 78 58 1143 581 129 64 244 118 255 121 11 3 52 4 90 3 61 -3
88 -11 215 -68z m2265 -508 c3 -5 1 -10 -4 -10 -6 0 -11 5 -11 10 0 6 2 10 4
10 3 0 8 -4 11 -10z m-415 -119 c0 -4 -11 -6 -25 -3 -14 2 -25 6 -25 8 0 2 11
4 25 4 14 0 25 -4 25 -9z m1038 -44 c55 -36 91 -92 102 -158 10 -64 12 -59
-117 -274 -49 -82 -204 -341 -343 -575 -139 -234 -268 -441 -287 -461 -64 -68
-178 -77 -256 -22 -46 32 -175 171 -396 428 -182 211 -201 237 -187 251 6 6
26 27 44 47 18 21 37 37 42 37 6 0 10 9 10 20 0 13 5 18 15 14 9 -4 18 1 22
12 6 15 7 15 14 -4 5 -12 13 -22 18 -22 6 0 8 7 5 15 -4 8 -1 21 5 29 6 7 8
16 4 20 -10 9 29 -5 44 -16 8 -6 18 -3 30 9 11 11 24 18 30 16 19 -7 24 14 8
30 -13 13 -13 16 2 22 14 5 15 8 4 15 -9 5 -12 18 -8 39 5 23 3 29 -7 25 -17
-6 -29 23 -14 32 17 10 38 -26 33 -55 -4 -23 -3 -24 9 -9 18 24 27 12 15 -20
-6 -16 -6 -29 0 -35 5 -5 7 -15 5 -22 -3 -7 -1 -16 5 -20 6 -3 11 -1 11 5 0 6
13 5 35 -4 19 -8 35 -12 35 -9 0 3 6 0 14 -7 8 -6 12 -19 9 -27 -4 -10 -2 -14
5 -10 11 7 182 -185 182 -204 0 -5 -13 -36 -30 -69 -16 -32 -26 -62 -21 -65
21 -12 83 85 445 705 164 279 174 293 234 325 40 21 58 25 118 22 58 -2 78 -7
112 -30z m-2725 8 c-3 -9 -8 -14 -10 -11 -3 3 -2 9 2 15 9 16 15 13 8 -4z
m-32 -11 c10 -9 36 -18 59 -21 27 -4 38 -9 31 -16 -6 -6 -24 -4 -52 7 -51 21
-90 46 -70 46 8 0 22 -7 32 -16z m127 -56 c-2 -7 7 -13 19 -13 12 0 31 -7 42
-17 14 -12 22 -13 31 -5 8 9 10 8 5 -5 -5 -11 -2 -18 6 -18 7 0 10 -3 6 -6 -3
-3 -23 3 -44 14 -21 11 -50 25 -65 32 -15 7 -25 17 -22 22 8 13 24 10 22 -4z
m182 -372 c0 -2 -9 -6 -20 -9 -11 -3 -18 -1 -14 4 5 9 34 13 34 5z m1170 -25
c0 -6 -4 -13 -10 -16 -5 -3 -10 1 -10 9 0 9 5 16 10 16 6 0 10 -4 10 -9z m63
-77 c-9 -25 -30 -15 -31 15 -1 28 0 29 18 14 10 -9 16 -22 13 -29z m137 -91
c0 -8 -45 9 -62 24 -13 12 -15 19 -6 33 11 17 14 15 40 -17 15 -20 28 -38 28
-40z m-173 12 c0 -8 -4 -15 -9 -15 -4 0 -8 7 -8 15 0 8 4 15 8 15 5 0 9 -7 9
-15z m-1947 -345 c0 -5 -7 -7 -15 -4 -8 4 -15 8 -15 10 0 2 7 4 15 4 8 0 15
-4 15 -10z m-902 -77 c-10 -2 -28 -2 -40 0 -13 2 -5 4 17 4 22 1 32 -1 23 -4z
m100 0 c-16 -2 -40 -2 -55 0 -16 2 -3 4 27 4 30 0 43 -2 28 -4z m125 0 c-18
-2 -48 -2 -65 0 -18 2 -4 4 32 4 36 0 50 -2 33 -4z m592 -23 c3 -5 1 -10 -4
-10 -6 0 -11 5 -11 10 0 6 2 10 4 10 3 0 8 -4 11 -10z m-528 -16 c-3 -3 -12
-4 -19 -1 -8 3 -5 6 6 6 11 1 17 -2 13 -5z m-127 -44 c0 -5 -4 -10 -10 -10 -5
0 -10 5 -10 10 0 6 5 10 10 10 6 0 10 -4 10 -10z m-334 -22 c-9 -5 -22 -7 -29
-4 -7 2 -4 5 6 5 10 1 15 5 12 11 -4 6 1 7 11 3 15 -6 15 -7 0 -15z m378 -19
c-5 -8 1 -10 20 -7 14 3 29 1 32 -3 9 -15 -70 -9 -90 6 -19 14 -18 15 13 15
22 0 30 -4 25 -11z m-409 -9 c3 -6 -1 -7 -9 -4 -18 7 -21 14 -7 14 6 0 13 -4
16 -10z m342 4 c-3 -3 -12 -4 -19 -1 -8 3 -5 6 6 6 11 1 17 -2 13 -5z m-404
-21 c-7 -2 -19 -2 -25 0 -7 3 -2 5 12 5 14 0 19 -2 13 -5z m965 -140 c-16 -2
-40 -2 -55 0 -16 2 -3 4 27 4 30 0 43 -2 28 -4z m-44 -60 c-5 -5 -12 -12 -16
-18 -4 -6 -8 -2 -8 8 0 9 7 17 17 17 9 0 12 -3 7 -7z m46 -93 c0 -5 -2 -10 -4
-10 -3 0 -8 5 -11 10 -3 6 -1 10 4 10 6 0 11 -4 11 -10z m43 -15 c-3 -9 -8
-14 -10 -11 -3 3 -2 9 2 15 9 16 15 13 8 -4z m-383 -132 c15 -48 67 -153 86
-174 13 -15 0 -17 -151 -24 -294 -12 -2019 26 -2040 46 -5 5 33 9 95 9 58 0
254 8 435 17 182 8 528 19 770 22 242 4 411 8 375 10 -47 2 -59 5 -45 11 19 8
18 9 -4 9 -56 2 -8 10 99 16 63 4 117 9 119 11 2 2 -31 4 -75 5 -43 1 -70 4
-59 7 11 4 20 16 20 27 0 17 8 21 60 26 53 5 48 6 -35 7 -52 0 -88 -2 -80 -6
8 -4 16 -15 18 -24 3 -17 3 -17 -198 -33 -42 -3 -58 -2 -45 4 l20 9 -20 8
c-16 7 -10 10 30 15 l50 6 -55 3 -55 3 55 7 c33 4 -13 7 -118 6 -108 -1 -172
-5 -171 -11 0 -5 8 -9 17 -7 14 2 14 1 3 -7 -9 -6 -23 -5 -39 2 -13 6 -19 13
-13 15 6 2 9 8 6 12 -3 5 205 9 464 10 l469 1 12 -38z m-725 7 c-28 -12 -85
-12 -85 0 0 6 24 10 53 9 38 0 47 -3 32 -9z m22 -16 c-3 -3 -12 -4 -19 -1 -8
3 -5 6 6 6 11 1 17 -2 13 -5z m1038 -23 c-3 -6 -11 -8 -17 -5 -6 4 -5 9 3 15
16 10 23 4 14 -10z m-758 -17 c-3 -3 -12 -4 -19 -1 -8 3 -5 6 6 6 11 1 17 -2
13 -5z m-164 -11 c-7 -2 -21 -2 -30 0 -10 3 -4 5 12 5 17 0 24 -2 18 -5z m-76
-19 c-3 -3 -12 -4 -19 -1 -8 3 -5 6 6 6 11 1 17 -2 13 -5z m1213 -144 c0 -5
-7 -6 -17 -3 -11 4 -14 3 -9 -5 5 -8 2 -10 -8 -6 -9 3 -13 10 -10 15 7 12 44
11 44 -1z m35 -29 c10 -17 -12 -21 -25 -6 -10 12 -10 15 3 15 9 0 18 -4 22 -9z
m22 -13 c-2 -7 10 -18 27 -25 19 -7 24 -12 13 -12 -29 -1 -57 18 -51 34 7 18
17 20 11 3z m-214 -175 c29 -26 51 -52 49 -56 -1 -5 1 -6 6 -4 4 3 43 -11 87
-32 l78 -38 -114 -6 c-172 -10 -1776 -8 -2079 3 -146 5 -380 13 -520 17 -288
8 -283 18 15 27 267 9 661 33 815 51 231 26 422 41 900 70 340 20 349 21 543
18 l168 -1 52 -49z m872 -156 c-8 -13 -12 -27 -8 -32 5 -4 -2 -2 -14 4 -13 6
-23 16 -23 21 0 5 -8 7 -17 3 -10 -3 -15 -3 -11 2 6 6 53 20 81 24 4 1 1 -9
-8 -22z m-1280 -258 c-4 -5 12 -9 37 -8 33 1 37 3 19 8 -13 3 29 7 93 8 l118
2 -37 -19 c-20 -10 -44 -16 -53 -13 -13 4 -14 2 -4 -4 13 -10 -26 -41 -93 -73
-16 -8 -39 -21 -49 -30 -11 -8 -17 -10 -13 -4 4 7 -3 9 -21 6 -23 -5 -24 -6
-7 -12 18 -6 17 -8 -10 -23 -21 -11 -36 -12 -48 -6 -11 7 -17 7 -17 0 0 -5 5
-11 10 -13 6 -2 1 -9 -11 -16 -12 -8 -18 -9 -14 -3 9 16 -4 13 -21 -4 -9 -8
-12 -15 -7 -15 16 -1 -42 -29 -60 -30 -10 0 -15 -4 -12 -10 3 -6 -1 -7 -9 -4
-9 3 -14 11 -13 16 1 6 -5 13 -13 15 -13 4 -13 3 0 -6 8 -6 11 -11 6 -11 -5 0
-4 -6 2 -13 9 -10 -2 -20 -47 -45 -32 -17 -62 -28 -66 -24 -5 4 -5 2 -2 -4 8
-13 -20 -27 -34 -18 -5 3 -6 10 -3 16 5 7 2 8 -5 3 -9 -5 -10 -10 -2 -18 13
-13 -54 -61 -72 -51 -6 4 -9 4 -5 -1 8 -8 -15 -24 -101 -72 -25 -15 -40 -19
-36 -11 4 8 2 8 -7 -2 -32 -36 -89 -67 -116 -62 -22 4 -24 6 -8 12 11 3 -9 7
-44 8 -35 1 -72 4 -82 8 -14 4 -17 1 -12 -13 5 -15 4 -15 -5 -3 -6 8 -8 23 -5
33 8 25 -38 23 -54 -3 -10 -16 -23 -20 -63 -20 -50 0 -51 1 -45 25 4 15 2 25
-4 25 -6 0 -8 6 -4 13 4 6 -2 4 -14 -6 -13 -13 -28 -17 -42 -12 -20 6 -20 8
-4 20 10 7 25 10 33 7 9 -3 12 -1 7 6 -5 8 0 12 13 12 12 0 21 4 21 9 0 4 12
20 26 34 19 20 23 28 13 31 -8 2 -243 10 -524 16 -488 12 -836 25 -768 28 68
4 285 34 411 58 74 14 143 24 155 23 12 -1 30 1 40 6 9 4 24 4 33 1 9 -3 60
-3 113 1 65 4 88 9 71 14 l-25 7 28 2 c15 1 30 3 35 4 4 1 75 6 157 10 256 13
293 19 360 65 54 36 60 38 73 23 7 -10 11 -11 7 -4 -3 6 -1 12 6 12 8 0 8 4
-1 15 -10 13 -9 15 10 15 13 0 20 3 17 6 -6 7 35 44 48 44 3 0 12 6 19 13 10
10 94 13 375 14 224 1 359 -2 356 -8z m1268 4 c-7 -2 -19 -2 -25 0 -7 3 -2 5
12 5 14 0 19 -2 13 -5z m-97 -22 c-3 -5 -22 -11 -41 -13 -19 -2 -32 -1 -27 3
6 6 20 10 65 18 5 0 6 -3 3 -8z m-141 -41 c4 -6 -5 -10 -19 -10 -14 0 -26 5
-26 10 0 6 9 10 19 10 11 0 23 -4 26 -10z m-85 -20 c13 0 13 -1 0 -10 -19 -12
-43 -13 -35 -1 3 5 0 11 -7 14 -7 2 -4 3 7 1 11 -2 27 -4 35 -4z m120 0 c-8
-5 -19 -10 -25 -10 -5 0 -3 5 5 10 8 5 20 10 25 10 6 0 3 -5 -5 -10z m-197
-17 c-7 -2 -19 -2 -25 0 -7 3 -2 5 12 5 14 0 19 -2 13 -5z m-6 -19 c-3 -3 -12
-4 -19 -1 -8 3 -5 6 6 6 11 1 17 -2 13 -5z m87 -9 c-4 -8 -1 -15 6 -15 6 0 8
-4 5 -10 -4 -6 -11 -5 -19 2 -16 16 -16 38 0 38 8 0 11 -6 8 -15z m-263 -35
c-21 -18 -21 -20 -5 -21 11 0 14 -3 7 -5 -7 -3 -20 -1 -29 4 -15 8 -14 12 12
25 39 22 44 20 15 -3z m239 10 c13 -9 13 -11 0 -20 -19 -12 -27 -12 -35 0 -3
6 1 7 9 4 9 -3 16 -3 16 0 0 4 -10 11 -22 16 -21 8 -21 9 -3 9 11 0 27 -4 35
-9z m-280 -50 c-19 -13 -30 -13 -30 0 0 6 10 10 23 10 18 0 19 -2 7 -10z m-75
-29 c-3 -6 -11 -11 -16 -11 -5 0 -4 6 3 14 14 16 24 13 13 -3z m205 -5 c0 -3
-4 -8 -10 -11 -5 -3 -10 -1 -10 4 0 6 5 11 10 11 6 0 10 -2 10 -4z m-222 -30
c-7 -8 -15 -12 -17 -11 -5 6 10 25 20 25 5 0 4 -6 -3 -14z m-53 -16 c3 0 3 5
0 10 -3 6 -1 10 4 10 16 0 13 -27 -3 -33 -8 -3 -22 4 -33 15 -18 21 -18 21 4
9 12 -6 24 -11 28 -11z m1563 -78 c6 -18 -15 -14 -22 4 -4 10 -1 14 6 12 6 -2
14 -10 16 -16z m-372 -22 c9 0 12 5 8 11 -4 7 -1 10 6 7 28 -9 23 -30 -6 -26
-15 2 -29 9 -30 16 -1 7 0 8 3 2 2 -5 11 -10 19 -10z m121 -16 c-3 -3 -12 -4
-19 -1 -8 3 -5 6 6 6 11 1 17 -2 13 -5z m-2871 -116 c-3 -13 -5 -24 -5 -26 -1
-1 -7 3 -15 10 -11 11 -11 15 3 25 21 16 22 16 17 -9z m-38 -24 c12 -8 19 -20
16 -26 -4 -6 -10 -5 -16 3 -7 11 -11 11 -15 2 -2 -7 -11 -13 -19 -13 -8 0 -14
-5 -14 -11 0 -5 -5 -7 -10 -4 -7 4 -7 13 0 24 6 12 5 22 -2 29 -19 19 33 15
60 -4z m352 -20 c19 -8 25 -12 12 -10 -17 3 -22 1 -18 -10 7 -17 -15 -19 -32
-2 -13 13 -16 38 -4 37 4 0 23 -7 42 -15z m-507 -11 c-4 -11 -8 -12 -11 -5 -5
17 -179 17 -185 0 -2 -7 -8 -10 -12 -6 -21 19 14 28 110 28 94 0 104 -2 98
-17z m207 -13 c0 -5 -7 -10 -15 -10 -8 0 -15 5 -15 10 0 6 7 10 15 10 8 0 15
-4 15 -10z m-45 -20 c3 -5 -3 -10 -14 -10 -12 0 -21 5 -21 10 0 6 6 10 14 10
8 0 18 -4 21 -10z m249 -26 c3 -8 2 -12 -4 -9 -6 3 -10 10 -10 16 0 14 7 11
14 -7z m-674 -4 c0 -5 -2 -10 -4 -10 -3 0 -8 5 -11 10 -3 6 -1 10 4 10 6 0 11
-4 11 -10z m606 -12 c-10 -6 -22 -6 -26 -2 -5 5 3 10 18 11 22 1 24 0 8 -9z
m649 -18 c-3 -5 -11 -10 -16 -10 -6 0 -7 5 -4 10 3 6 11 10 16 10 6 0 7 -4 4
-10z m-1340 -40 c3 -5 1 -10 -4 -10 -6 0 -11 5 -11 10 0 6 2 10 4 10 3 0 8 -4
11 -10z m510 0 c-3 -5 -12 -10 -18 -10 -7 0 -6 4 3 10 19 12 23 12 15 0z m709
-9 c4 -5 -3 -7 -14 -4 -23 6 -26 13 -6 13 8 0 17 -4 20 -9z m-879 -151 c3 -5
1 -10 -4 -10 -6 0 -11 5 -11 10 0 6 2 10 4 10 3 0 8 -4 11 -10z m-520 -60 c3
-5 1 -10 -4 -10 -6 0 -11 5 -11 10 0 6 2 10 4 10 3 0 8 -4 11 -10z m-87 -105
c-3 -3 -9 2 -12 12 -6 14 -5 15 5 6 7 -7 10 -15 7 -18z m-88 -19 c0 -2 -7 -7
-16 -10 -8 -3 -12 -2 -9 4 6 10 25 14 25 6z m17 -28 c2 -17 0 -19 -7 -8 -5 8
-6 18 -4 22 8 12 10 10 11 -14z m358 12 c3 -5 2 -10 -4 -10 -5 0 -13 5 -16 10
-3 6 -2 10 4 10 5 0 13 -4 16 -10z m-71 -55 c-25 -19 -38 -19 -22 0 7 8 19 14
27 15 11 0 9 -4 -5 -15z m-57 -31 c-3 -3 -12 -4 -19 -1 -8 3 -5 6 6 6 11 1 17
-2 13 -5z m-297 -73 c0 -11 -5 -23 -12 -27 -15 -9 -67 -11 -62 -2 2 4 -11 6
-31 5 -21 -1 -35 -7 -35 -15 0 -7 -5 -10 -10 -7 -8 5 -7 12 2 22 7 9 12 19 10
22 -2 3 2 7 10 9 10 3 10 2 -1 -6 -8 -6 -9 -12 -3 -16 6 -3 13 -2 17 4 4 6 12
7 18 4 8 -5 8 -3 0 7 -7 7 -13 20 -13 29 1 12 2 12 11 -2 5 -10 15 -18 21 -18
6 0 5 7 -3 17 -12 14 -12 16 1 11 8 -3 24 -2 35 2 23 8 45 -10 45 -39z m250
45 c0 -2 -7 -7 -16 -10 -8 -3 -12 -2 -9 4 6 10 25 14 25 6z m-181 -96 c11 -6
10 -8 -3 -13 -8 -3 -18 -2 -21 3 -4 6 -15 10 -26 10 -10 0 -19 5 -19 10 0 10
42 4 69 -10z m-249 -8 c0 -5 -12 -14 -27 -21 -28 -13 -28 -13 -9 8 20 22 36
27 36 13z m150 -2 c0 -6 -11 -10 -25 -10 -14 0 -25 4 -25 8 0 4 11 9 25 10 14
1 25 -3 25 -8z m70 -11 c0 -5 -5 -7 -10 -4 -6 3 -13 0 -16 -8 -3 -9 -14 -12
-29 -9 -14 2 -22 9 -19 14 4 5 15 8 25 5 11 -3 19 -1 19 4 0 5 7 9 15 9 8 0
15 -5 15 -11z m-185 -25 c8 -12 28 -17 63 -18 51 -1 51 -1 29 -18 -32 -24 -60
-30 -53 -11 4 9 1 13 -6 10 -7 -2 -22 0 -33 5 -19 8 -19 8 -2 -5 21 -17 22
-28 2 -21 -24 10 -41 -7 -21 -22 10 -7 13 -15 7 -18 -5 -4 -12 -2 -16 3 -3 7
-15 7 -30 1 -30 -12 -85 -8 -86 5 0 6 -5 1 -10 -10 l-9 -20 3 20 c2 12 9 19
19 17 9 -1 19 5 22 14 9 22 -2 32 -15 14 -9 -13 -10 -13 -6 0 5 22 32 19 30
-4 -1 -13 2 -15 10 -7 9 9 8 16 -1 31 -7 12 -8 21 -2 25 6 3 10 1 10 -5 0 -7
7 -5 16 4 17 18 28 21 19 6 -10 -16 11 -12 25 5 16 19 20 19 35 -1z m85 -4 c0
-5 -4 -10 -9 -10 -6 0 -13 5 -16 10 -3 6 1 10 9 10 9 0 16 -4 16 -10z m-207
-118 c-13 -2 -23 -8 -23 -13 0 -6 -5 -7 -11 -4 -15 10 22 34 41 26 11 -4 10
-7 -7 -9z m77 7 c-26 -17 -70 -40 -70 -35 0 7 64 46 75 46 6 0 3 -5 -5 -11z
m-174 -46 c-3 -21 -5 -39 -6 -40 0 -2 -10 -3 -22 -2 l-23 0 23 9 c27 12 29 20
2 13 -12 -3 -20 0 -20 6 0 7 5 9 10 6 6 -3 10 1 10 10 0 9 5 13 10 10 6 -3 10
1 10 9 0 9 3 16 6 16 3 0 3 -17 0 -37z m740 -30 c35 -26 64 -51 64 -55 0 -5
-71 -7 -157 -6 -93 2 -157 7 -157 12 2 12 153 96 173 96 7 0 42 -21 77 -47z
m-686 12 c0 -2 -9 -9 -20 -15 -12 -6 -20 -7 -20 -1 0 5 8 12 18 14 9 3 18 5
20 6 1 0 2 -1 2 -4z m-98 -38 c17 -14 3 -25 -127 -97 l-40 -23 48 48 c26 26
53 48 60 49 21 3 38 17 32 27 -9 13 7 11 27 -4z m2029 -383 c78 -28 89 -29 89
-9 0 13 38 15 273 17 149 1 328 1 397 0 l125 -2 3 -130 3 -129 -138 -3 -138
-3 -3 -477 -2 -478 -140 0 -140 0 -2 478 -3 477 -127 3 -127 3 -16 -31 -15
-30 -38 24 c-62 41 -133 59 -213 54 -65 -3 -74 -6 -100 -36 -63 -70 -33 -108
158 -202 199 -97 266 -162 299 -292 50 -195 -75 -398 -280 -453 -57 -15 -86
-17 -208 -10 -79 4 -204 9 -278 11 l-135 2 -39 96 -38 96 -224 0 -223 0 -14
-27 c-8 -16 -25 -58 -38 -95 l-24 -68 -142 0 -142 0 28 78 c16 42 46 120 66
172 20 52 68 178 105 280 111 299 246 653 259 678 11 21 18 22 130 22 l119 0
36 -92 c19 -51 92 -244 160 -428 144 -386 152 -406 167 -415 6 -4 13 2 16 15
4 15 10 19 22 14 103 -44 152 -57 226 -58 59 -1 88 4 112 17 34 18 63 62 63
96 0 28 -43 76 -87 96 -266 124 -338 173 -383 261 -34 67 -35 195 -2 268 58
129 174 213 323 236 81 12 205 1 280 -26z m1974 2 c44 -15 83 -31 88 -35 4 -4
-9 -75 -29 -158 l-35 -151 -57 29 c-143 74 -314 50 -414 -59 -64 -70 -83 -122
-83 -227 0 -79 4 -96 28 -143 34 -65 98 -128 157 -155 35 -17 66 -21 140 -22
84 0 102 3 150 27 30 15 56 25 58 23 6 -6 82 -269 82 -286 0 -18 -63 -42 -165
-64 -210 -44 -416 16 -565 165 -158 157 -220 369 -175 598 45 224 221 417 436
477 39 11 90 14 179 12 105 -3 138 -8 205 -31z m2011 -1 c45 -15 96 -36 113
-46 l31 -19 -16 -37 c-9 -21 -28 -70 -43 -110 -15 -40 -29 -75 -32 -78 -3 -3
-32 7 -65 21 -112 51 -253 43 -284 -15 -32 -62 6 -102 175 -184 152 -75 229
-136 273 -222 24 -44 27 -61 27 -150 0 -88 -3 -107 -27 -157 -15 -32 -47 -79
-72 -106 -87 -92 -195 -132 -362 -132 -118 0 -216 22 -328 74 l-75 34 51 129
c28 70 54 132 58 136 4 4 40 -8 81 -27 79 -38 175 -66 222 -66 54 0 115 22
143 51 34 35 38 87 9 119 -11 12 -86 55 -167 96 -81 41 -170 93 -197 114 -92
73 -132 176 -111 291 28 153 129 260 290 306 70 20 209 10 306 -22z m-5468
-124 l3 -131 -268 -2 -268 -3 -3 -117 -3 -118 216 0 215 0 0 -120 0 -120 -212
-2 -213 -3 -3 -237 -2 -238 -108 -1 c-59 0 -116 -2 -127 -4 -11 -2 -25 -1 -30
3 -7 5 -9 222 -7 614 l3 608 237 3 c130 2 311 2 402 1 l165 -2 3 -131z m3802
129 c20 -10 281 -330 322 -395 13 -19 27 -33 33 -32 5 2 70 82 143 178 73 96
149 193 168 217 l36 43 111 -3 112 -3 3 -612 2 -613 -141 0 -140 0 3 360 c2
198 1 360 -1 360 -6 0 -189 -248 -261 -353 -30 -44 -41 -46 -62 -9 -30 50
-257 352 -265 352 -5 0 -8 -159 -8 -353 l0 -352 -137 -3 -138 -3 0 600 c0 330
3 606 6 615 5 13 24 16 101 16 52 0 103 -5 113 -10z"/>
<path d="M6886 7632 c-3 -6 -1 -14 5 -17 14 -9 20 -2 10 14 -6 8 -11 9 -15 3z"/>
<path d="M6861 7614 c0 -12 6 -37 14 -55 8 -19 14 -28 15 -21 0 7 5 10 10 7 6
-4 7 -12 3 -18 -4 -7 1 -5 11 3 17 14 17 15 -3 24 -12 5 -21 15 -21 23 0 8 -4
12 -9 8 -5 -3 -12 7 -14 22 -3 20 -4 22 -6 7z"/>
<path d="M6916 7595 c-9 -26 -7 -32 5 -12 6 10 9 21 6 23 -2 3 -7 -2 -11 -11z"/>
<path d="M6956 7495 c4 -8 10 -12 15 -9 11 6 2 24 -11 24 -5 0 -7 -7 -4 -15z"/>
<path d="M6940 7419 c0 -5 -4 -7 -10 -4 -6 3 -7 -1 -4 -9 7 -18 24 -22 24 -5
0 5 4 7 10 4 6 -3 7 1 4 9 -7 18 -24 22 -24 5z"/>
<path d="M7075 7270 c3 -5 8 -10 11 -10 2 0 4 5 4 10 0 6 -5 10 -11 10 -5 0
-7 -4 -4 -10z"/>
<path d="M7118 7238 c5 -5 16 -8 23 -6 8 3 3 7 -10 11 -17 4 -21 3 -13 -5z"/>
<path d="M7180 7230 c8 -5 20 -10 25 -10 6 0 3 5 -5 10 -8 5 -19 10 -25 10 -5
0 -3 -5 5 -10z"/>
<path d="M5238 7413 c7 -3 16 -2 19 1 4 3 -2 6 -13 5 -11 0 -14 -3 -6 -6z"/>
<path d="M4590 6110 c0 -12 17 -12 45 0 17 7 15 9 -12 9 -18 1 -33 -3 -33 -9z"/>
<path d="M4645 6090 c3 -5 8 -10 11 -10 2 0 4 5 4 10 0 6 -5 10 -11 10 -5 0
-7 -4 -4 -10z"/>
<path d="M4753 6083 c9 -2 25 -2 35 0 9 3 1 5 -18 5 -19 0 -27 -2 -17 -5z"/>
<path d="M4991 5904 c0 -11 3 -14 6 -6 3 7 2 16 -1 19 -3 4 -6 -2 -5 -13z"/>
<path d="M4993 5835 c0 -22 2 -30 4 -17 2 12 2 30 0 40 -3 9 -5 -1 -4 -23z"/>
<path d="M4986 5695 c-3 -8 -1 -15 4 -15 6 0 10 7 10 15 0 8 -2 15 -4 15 -2 0
-6 -7 -10 -15z"/>
<path d="M5012 5680 c-7 -11 -8 -20 -3 -20 9 0 24 30 18 36 -1 2 -8 -6 -15
-16z"/>
<path d="M4970 5638 c-7 -20 -4 -34 7 -46 13 -14 13 -38 0 -59 -6 -10 2 -13
32 -13 22 0 42 4 45 9 3 5 -2 8 -12 7 -12 -1 -18 8 -20 28 -2 17 -11 30 -22
33 -10 3 -21 15 -23 27 -2 11 -5 18 -7 14z"/>
<path d="M5021 5623 c-1 -16 6 -24 24 -29 13 -3 23 -11 22 -18 -1 -6 6 -10 17
-8 12 2 17 -1 14 -10 -7 -18 18 -42 28 -26 8 13 -48 68 -70 68 -7 0 -18 10
-24 23 l-11 22 0 -22z"/>
<path d="M4960 5506 c0 -2 8 -10 18 -17 15 -13 16 -12 3 4 -13 16 -21 21 -21
13z"/>
<path d="M5035 5500 c4 -6 10 -8 15 -5 5 3 10 -3 12 -12 3 -19 48 -25 59 -9 9
12 53 -30 44 -43 -3 -6 -1 -11 4 -11 6 0 11 9 11 20 0 11 5 20 10 20 6 0 9 -6
8 -12 -2 -8 8 -13 25 -13 15 1 27 -3 27 -7 0 -4 7 -4 17 -1 12 5 14 3 8 -7 -5
-8 -4 -11 3 -6 6 3 13 2 16 -3 3 -5 15 -7 26 -4 11 3 17 9 14 15 -3 5 -11 5
-19 -2 -9 -8 -15 -8 -20 0 -3 5 0 10 7 10 7 1 -2 8 -21 16 -19 8 -41 12 -48 9
-8 -2 -12 -1 -9 4 3 5 -4 11 -15 14 -12 3 -18 10 -14 16 3 6 0 9 -8 5 -8 -3
-18 0 -22 6 -6 9 -10 9 -16 -1 -8 -12 -11 -11 -19 1 -8 13 -10 12 -10 -2 0
-22 -18 -23 -44 -3 -23 17 -50 20 -41 5z m140 -20 c3 -5 1 -10 -4 -10 -6 0
-11 5 -11 10 0 6 2 10 4 10 3 0 8 -4 11 -10z"/>
<path d="M5338 5403 c-14 -4 -15 -8 -6 -29 12 -27 31 -34 21 -7 -4 11 -3 14 5
9 7 -4 12 -2 12 3 0 6 -5 11 -11 11 -5 0 -7 5 -4 10 3 6 5 9 3 9 -2 -1 -11 -3
-20 -6z"/>
<path d="M5220 5366 c0 -2 7 -7 16 -10 8 -3 12 -2 9 4 -6 10 -25 14 -25 6z"/>
<path d="M5450 5325 c-8 -10 -9 -15 -1 -15 6 0 11 5 11 10 0 6 7 10 17 10 14
0 14 -3 -3 -22 -10 -12 -14 -18 -7 -15 13 8 43 -1 43 -14 0 -4 -7 -5 -17 -2
-11 4 -14 3 -9 -5 4 -7 13 -12 21 -12 23 0 28 21 9 35 -11 7 -19 19 -19 27 0
19 -30 21 -45 3z"/>
<path d="M5405 5250 c-16 -7 -17 -9 -3 -9 9 -1 20 4 23 9 7 11 7 11 -20 0z"/>
<path d="M5444 5247 c-8 -21 -3 -29 13 -19 8 5 9 13 3 22 -7 12 -10 12 -16 -3z"/>
<path d="M5540 5252 c0 -5 11 -15 25 -22 19 -10 28 -11 37 -2 6 6 9 14 6 18
-11 10 -68 16 -68 6z"/>
<path d="M5621 5253 c3 -19 -2 -33 -17 -47 -8 -9 -11 -16 -6 -16 5 0 15 7 22
15 7 8 21 15 31 15 29 0 31 16 3 29 -29 13 -34 14 -33 4z"/>
<path d="M5673 5205 c4 -9 7 -19 7 -21 0 -2 7 -4 16 -4 8 0 23 -7 31 -16 13
-13 17 -13 24 -2 5 8 4 14 -4 17 -7 2 -17 9 -22 16 -6 7 -21 16 -34 20 -20 6
-23 4 -18 -10z"/>
<path d="M5645 5200 c3 -5 8 -10 11 -10 2 0 4 5 4 10 0 6 -5 10 -11 10 -5 0
-7 -4 -4 -10z"/>
<path d="M5547 5173 c3 -7 6 -13 8 -13 1 0 7 6 13 13 8 10 6 13 -7 13 -11 0
-17 -6 -14 -13z"/>
<path d="M5720 5070 c0 -5 4 -10 9 -10 6 0 13 5 16 10 3 6 -1 10 -9 10 -9 0
-16 -4 -16 -10z"/>
<path d="M4938 4443 c7 -3 16 -2 19 1 4 3 -2 6 -13 5 -11 0 -14 -3 -6 -6z"/>
<path d="M4842 4408 c-18 -18 -15 -28 9 -28 15 0 19 -5 14 -19 -4 -13 0 -20
14 -24 40 -10 29 41 -12 56 -10 4 -15 11 -12 17 8 14 2 13 -13 -2z"/>
<path d="M5000 4380 c-8 -5 -10 -10 -5 -10 6 0 17 5 25 10 8 5 11 10 5 10 -5
0 -17 -5 -25 -10z"/>
<path d="M6095 4380 c-19 -8 -19 -9 3 -9 12 -1 22 4 22 9 0 6 -1 10 -2 9 -2 0
-12 -4 -23 -9z"/>
<path d="M4918 4373 c7 -3 16 -2 19 1 4 3 -2 6 -13 5 -11 0 -14 -3 -6 -6z"/>
<path d="M4955 4360 c-3 -6 1 -7 9 -4 18 7 21 14 7 14 -6 0 -13 -4 -16 -10z"/>
<path d="M6030 4360 c-13 -8 -12 -10 3 -10 9 0 17 -4 17 -9 0 -5 -8 -12 -17
-14 -16 -4 -16 -5 -1 -6 21 -1 31 15 21 33 -6 11 -13 12 -23 6z"/>
<path d="M6078 4353 c7 -3 16 -2 19 1 4 3 -2 6 -13 5 -11 0 -14 -3 -6 -6z"/>
<path d="M4670 4325 c-8 -9 -8 -15 -2 -15 12 0 26 19 19 26 -2 2 -10 -2 -17
-11z"/>
<path d="M5926 4331 c-4 -5 3 -7 14 -4 23 6 26 13 6 13 -8 0 -17 -4 -20 -9z"/>
<path d="M4690 4280 c-8 -5 -10 -10 -5 -10 6 0 17 5 25 10 8 5 11 10 5 10 -5
0 -17 -5 -25 -10z"/>
<path d="M5768 4283 c6 -2 18 -2 25 0 6 3 1 5 -13 5 -14 0 -19 -2 -12 -5z"/>
<path d="M5876 4281 c-4 -5 3 -7 14 -4 23 6 26 13 6 13 -8 0 -17 -4 -20 -9z"/>
<path d="M5728 4253 c7 -3 16 -2 19 1 4 3 -2 6 -13 5 -11 0 -14 -3 -6 -6z"/>
<path d="M6945 6519 c-11 -17 1 -21 15 -4 8 9 8 15 2 15 -6 0 -14 -5 -17 -11z"/>
<path d="M4428 5643 c12 -2 30 -2 40 0 9 3 -1 5 -23 4 -22 0 -30 -2 -17 -4z"/>
<path d="M4028 5623 c12 -2 30 -2 40 0 9 3 -1 5 -23 4 -22 0 -30 -2 -17 -4z"/>
<path d="M4285 5529 l-50 -6 63 -1 c34 -1 62 0 62 2 0 9 -28 11 -75 5z"/>
<path d="M4427 5529 c7 -7 15 -10 18 -7 3 3 -2 9 -12 12 -14 6 -15 5 -6 -5z"/>
<path d="M4388 5523 c7 -3 16 -2 19 1 4 3 -2 6 -13 5 -11 0 -14 -3 -6 -6z"/>
<path d="M4773 5193 c4 -3 2 -12 -4 -19 -8 -9 -3 -17 17 -31 20 -13 29 -14 32
-5 3 9 9 9 23 1 11 -5 17 -14 14 -19 -5 -9 107 -50 134 -49 9 0 -15 10 -52 22
-54 17 -66 25 -56 34 7 7 9 16 5 20 -4 4 -11 1 -15 -6 -7 -11 -11 -9 -20 8 -6
11 -23 24 -36 27 -14 3 -25 10 -25 15 0 5 -5 9 -12 9 -6 0 -8 -3 -5 -7z"/>
<path d="M4840 5190 c-9 -6 -10 -10 -3 -10 6 0 15 5 18 10 8 12 4 12 -15 0z"/>
<path d="M5038 5073 c7 -3 16 -2 19 1 4 3 -2 6 -13 5 -11 0 -14 -3 -6 -6z"/>
<path d="M4109 4707 c5 -5 19 -7 32 -5 20 3 19 5 -9 9 -20 3 -29 2 -23 -4z"/>
<path d="M4053 4632 c-13 -2 -23 -7 -23 -12 0 -14 133 -7 138 8 2 6 -4 12 -13
12 -9 0 -13 -4 -10 -10 4 -6 -8 -10 -29 -10 -19 0 -36 3 -38 8 -1 4 -13 6 -25
4z"/>
<path d="M4420 4630 c8 -5 20 -10 25 -10 6 0 3 5 -5 10 -8 5 -19 10 -25 10 -5
0 -3 -5 5 -10z"/>
<path d="M3794 4609 c-16 -4 20 -7 80 -8 60 0 107 1 104 4 -8 8 -150 11 -184
4z"/>
<path d="M4400 4616 c0 -3 9 -10 20 -16 11 -6 20 -8 20 -6 0 3 -9 10 -20 16
-11 6 -20 8 -20 6z"/>
<path d="M4252 4574 c-11 -12 -9 -14 8 -14 11 0 20 4 20 9 0 17 -15 19 -28 5z"/>
<path d="M3620 4387 c0 -8 -6 -18 -12 -20 -7 -3 -3 -6 10 -6 12 -1 22 -5 22
-11 0 -5 4 -10 9 -10 13 0 2 37 -15 51 -11 9 -14 8 -14 -4z"/>
<path d="M3680 4380 c0 -5 6 -10 14 -10 8 0 18 5 21 10 3 6 -3 10 -14 10 -12
0 -21 -4 -21 -10z"/>
<path d="M3800 4350 c0 -5 5 -10 10 -10 6 0 10 5 10 10 0 6 -4 10 -10 10 -5 0
-10 -4 -10 -10z"/>
<path d="M3546 4334 c-4 -9 -4 -19 -1 -22 2 -3 7 3 11 12 4 9 4 19 1 22 -2 3
-7 -3 -11 -12z"/>
<path d="M3593 4343 c9 -2 23 -2 30 0 6 3 -1 5 -18 5 -16 0 -22 -2 -12 -5z"/>
<path d="M3673 4317 c2 -7 18 -13 35 -15 36 -4 39 -8 15 -34 -15 -17 -15 -18
0 -18 10 0 17 7 17 16 0 10 7 14 23 12 12 -2 24 -6 27 -9 3 -3 14 3 25 14 11
11 15 17 8 13 -6 -3 -16 2 -22 11 -6 10 -11 12 -11 6 0 -14 -26 -18 -32 -4 -5
13 -90 21 -85 8z"/>
<path d="M3780 4210 c0 -5 5 -10 11 -10 5 0 7 5 4 10 -3 6 -8 10 -11 10 -2 0
-4 -4 -4 -10z"/>
<path d="M2504 3564 c3 -9 6 -18 6 -20 0 -2 7 -4 15 -4 8 0 15 9 15 20 0 14
-7 20 -21 20 -15 0 -19 -4 -15 -16z"/>
<path d="M2125 3220 c-3 -5 -1 -10 4 -10 6 0 11 5 11 10 0 6 -2 10 -4 10 -3 0
-8 -4 -11 -10z"/>
<path d="M3105 2393 c-31 -74 -115 -314 -115 -328 0 -13 22 -15 135 -15 77 0
135 4 135 9 0 5 -27 84 -60 175 -33 91 -60 170 -60 175 0 27 -21 17 -35 -16z"/>
</g>
</svg>
